<?xml version="1.0" standalone="no"?>
<!DOCTYPE svg PUBLIC "-//W3C//DTD SVG 20010904//EN"
 "http://www.w3.org/TR/2001/REC-SVG-20010904/DTD/svg10.dtd">
<svg version="1.0" xmlns="http://www.w3.org/2000/svg"
 width="1080.000000pt" height="1440.000000pt" viewBox="0 0 1080.000000 1440.000000"
 preserveAspectRatio="xMidYMid meet">

<g transform="translate(0.000000,1440.000000) scale(0.100000,-0.100000)"
fill="#000000" stroke="none">
<path d="M2371 14391 c-15 -10 -7 -31 13 -31 7 0 23 -11 36 -25 18 -19 27 -22
41 -14 15 8 19 6 19 -6 0 -9 5 -13 10 -10 12 8 -3 39 -36 72 -24 24 -58 29
-83 14z"/>
<path d="M2900 14381 c0 -11 5 -23 10 -26 6 -3 10 -16 10 -27 0 -12 22 -43 53
-72 28 -28 72 -78 97 -111 25 -33 57 -70 73 -83 15 -13 27 -28 27 -34 0 -6 11
-23 25 -40 14 -16 25 -39 25 -50 0 -12 8 -30 17 -41 18 -19 17 -19 -37 -12
-30 4 -56 11 -58 16 -2 5 -14 9 -27 9 -12 0 -28 7 -35 15 -7 8 -18 15 -25 15
-8 0 -16 6 -18 13 -4 10 -6 10 -6 0 -2 -25 -28 -12 -83 40 -22 21 -28 21 -28
2 0 -8 -7 -15 -16 -15 -11 0 -14 -5 -10 -16 4 -9 -1 -28 -9 -41 -9 -13 -14
-32 -12 -41 3 -12 5 -10 6 6 1 31 26 23 27 -9 0 -13 6 -39 13 -57 11 -26 16
-30 27 -21 11 9 14 7 14 -10 0 -12 6 -21 15 -21 8 0 15 -8 15 -19 0 -10 7 -24
15 -31 8 -7 15 -16 15 -21 0 -12 83 -117 125 -158 43 -43 51 -81 37 -181 -12
-80 -5 -161 18 -210 14 -32 54 -49 100 -44 19 2 74 7 123 10 l87 5 6 -30 c4
-20 11 -28 20 -24 19 7 18 -36 -1 -65 -12 -16 -13 -26 -5 -42 6 -11 15 -20 21
-20 6 0 7 -4 4 -10 -3 -5 12 -36 34 -67 74 -106 74 -107 71 -728 -1 -302 -3
-561 -5 -575 -1 -14 -6 -147 -10 -295 -4 -149 -10 -306 -12 -350 -3 -44 -7
-838 -9 -1765 -4 -1421 -6 -1698 -19 -1770 -8 -47 -19 -137 -25 -200 -23 -246
-61 -416 -115 -519 -42 -80 -200 -230 -300 -286 -27 -16 -63 -41 -80 -56 -16
-15 -54 -41 -84 -59 -30 -17 -73 -47 -95 -65 -75 -61 -303 -129 -471 -141 -49
-3 -113 -12 -140 -18 -28 -7 -70 -11 -95 -9 -59 5 -352 77 -462 113 -270 89
-489 108 -530 46 -13 -19 -9 -72 11 -135 26 -84 107 -194 289 -390 138 -148
154 -170 169 -221 13 -49 21 -60 65 -90 54 -37 55 -40 119 -174 40 -84 41 -91
36 -158 -5 -53 -1 -84 13 -130 18 -58 18 -88 -1 -88 -5 0 -9 -7 -9 -15 0 -10
-10 -15 -29 -15 -45 0 -48 -27 -5 -47 28 -14 35 -22 31 -39 -3 -16 0 -21 10
-17 7 3 13 0 13 -6 0 -7 -8 -15 -18 -18 -26 -10 -62 -52 -62 -72 0 -10 -9 -26
-20 -36 -11 -10 -18 -21 -15 -25 6 -10 -17 -80 -26 -80 -5 0 -6 -7 -3 -15 4
-8 -1 -17 -10 -21 -9 -3 -16 -17 -16 -30 0 -14 -7 -27 -16 -31 -8 -3 -13 -12
-10 -19 3 -8 1 -14 -4 -14 -5 0 -18 -20 -28 -44 -17 -37 -75 -96 -95 -96 -4 0
-16 -9 -28 -21 -21 -21 -23 -64 -2 -64 31 0 19 -16 -37 -50 -50 -30 -59 -40
-49 -51 9 -11 15 -11 25 -3 9 7 14 8 14 1 0 -5 10 -12 21 -15 20 -5 20 -7 6
-21 -9 -9 -20 -16 -26 -16 -6 0 -11 -6 -11 -14 0 -8 -6 -16 -12 -19 -7 -2 -3
-3 9 -1 11 2 27 6 35 9 8 3 24 -4 36 -16 14 -13 29 -18 40 -14 16 6 16 7 0 16
-24 13 -23 29 2 29 14 0 20 -7 20 -21 0 -14 5 -19 14 -16 8 3 31 9 50 13 20 3
39 10 42 15 7 12 84 11 84 -1 0 -22 -25 -60 -37 -56 -7 3 -18 -3 -26 -14 -7
-10 -25 -22 -40 -25 -15 -4 -27 -11 -27 -15 0 -11 60 -3 120 16 81 25 127 32
144 22 10 -6 16 -5 16 2 0 5 16 10 35 10 24 0 33 -4 29 -13 -3 -10 5 -14 28
-16 74 -5 148 0 202 14 19 5 31 4 36 -5 5 -9 21 -11 49 -7 29 3 50 0 76 -14
34 -18 39 -19 67 -4 18 8 39 13 48 10 9 -3 28 4 42 15 l26 20 6 -23 c3 -12 6
-35 6 -52 0 -49 10 -55 93 -58 42 -1 77 -4 77 -6 0 -2 -8 -9 -17 -16 -15 -11
-13 -13 16 -20 20 -4 37 -3 44 4 6 6 21 11 34 11 13 0 23 6 23 13 0 6 7 3 16
-8 11 -15 17 -17 23 -7 4 7 17 14 29 17 12 2 50 11 85 21 101 27 139 35 187
38 46 4 135 21 182 36 21 6 25 5 21 -6 -3 -8 -10 -14 -17 -14 -6 0 -5 -4 3 -9
17 -11 43 -3 54 16 6 10 13 11 29 2 11 -6 33 -8 49 -5 16 3 41 1 56 -5 21 -8
30 -7 38 4 14 19 75 33 75 17 0 -8 9 -10 24 -6 25 6 51 -14 28 -22 -7 -2 -10
-7 -7 -12 6 -9 82 -2 106 11 8 4 22 3 30 -2 12 -7 12 -9 0 -9 -11 0 -9 -5 6
-19 20 -19 24 -19 79 -5 33 8 71 21 85 29 31 17 109 29 109 16 0 -11 -36 -24
-48 -18 -10 7 -47 -21 -39 -29 4 -4 14 -1 22 6 12 10 19 10 28 1 9 -9 9 -14
-3 -21 -8 -5 -11 -12 -8 -15 10 -10 28 4 28 21 0 17 12 18 28 2 8 -8 22 -7 57
7 25 9 49 15 52 11 3 -3 14 -1 25 5 13 7 23 7 31 0 8 -6 18 -6 27 -1 22 14 50
12 50 -4 0 -26 82 -41 119 -21 36 18 109 37 120 30 5 -3 11 0 13 7 3 9 9 8 22
-4 14 -14 15 -22 6 -39 -15 -27 -6 -35 25 -21 14 7 35 17 48 22 12 6 37 12 54
13 18 1 33 5 33 8 0 16 34 18 51 3 9 -8 35 -17 56 -18 21 -1 46 -6 57 -11 11
-5 26 -4 36 3 25 15 148 45 162 39 8 -4 4 -8 -9 -12 -28 -9 -30 -25 -3 -25 11
0 20 -4 20 -10 0 -5 -4 -10 -10 -10 -5 0 -10 -4 -10 -10 0 -15 41 -12 70 5 30
17 74 20 64 4 -3 -6 0 -15 7 -20 11 -7 11 -9 -3 -9 -9 0 -23 -6 -30 -12 -8 -7
-26 -20 -40 -28 -103 -59 -175 -107 -194 -129 -21 -25 -22 -26 -4 -29 11 -2
29 6 42 17 12 12 30 21 39 21 29 0 71 -19 64 -30 -3 -5 -2 -10 4 -10 6 0 15
10 22 21 6 13 14 17 18 11 8 -13 122 39 171 79 28 22 49 30 88 33 82 4 80 2
-103 -116 -122 -78 -143 -94 -105 -80 18 7 28 6 38 -4 10 -11 10 -14 1 -14 -7
0 -10 -3 -7 -6 8 -7 133 50 142 65 4 5 19 16 34 24 50 25 147 80 160 90 7 6
32 13 55 17 23 4 51 11 62 15 11 4 1 -7 -22 -25 -44 -33 -57 -54 -25 -43 15 6
15 4 -2 -15 -11 -12 -24 -21 -30 -20 -14 3 -57 -38 -48 -46 3 -3 15 -6 26 -7
20 0 20 -1 -2 -9 -12 -5 -25 -16 -28 -24 -3 -8 -14 -16 -25 -19 -22 -6 -26
-37 -5 -37 8 0 30 14 48 30 18 17 37 30 42 30 5 0 17 7 26 15 9 8 29 16 43 17
15 1 27 5 27 9 0 10 57 42 125 69 33 13 74 32 90 42 17 10 37 18 45 17 8 0 5
-4 -8 -9 -12 -5 -25 -17 -29 -26 -3 -8 -15 -20 -27 -25 -18 -8 -17 -9 7 -4 15
3 27 1 27 -5 0 -5 -10 -10 -22 -10 -18 0 -20 -2 -8 -10 10 -6 20 -5 30 4 8 7
40 25 70 39 30 14 71 39 90 56 19 17 48 35 64 41 27 9 28 9 14 -7 -16 -18 -13
-48 3 -37 5 3 9 0 9 -6 0 -7 -9 -14 -20 -17 -16 -4 -18 -8 -9 -19 6 -8 7 -14
2 -14 -5 0 -10 -6 -10 -14 0 -11 4 -12 19 -3 12 8 16 18 11 32 -5 18 -4 18 11
6 14 -12 19 -11 34 3 10 9 24 16 31 16 7 0 26 13 43 30 30 31 48 38 48 20 0
-5 -4 -10 -10 -10 -5 0 -10 -7 -10 -16 0 -11 6 -14 21 -9 16 5 19 4 14 -5 -4
-7 -1 -17 6 -22 10 -7 8 -8 -8 -5 -14 3 -23 0 -23 -7 0 -6 -9 -17 -21 -24 -31
-19 -17 -25 17 -7 16 8 37 15 47 15 26 0 18 -32 -11 -45 -26 -11 -28 -21 -6
-29 8 -3 12 -10 9 -16 -9 -14 8 -13 23 2 9 9 12 9 12 0 0 -7 -4 -12 -9 -12 -5
0 -11 -9 -14 -20 -4 -17 -3 -18 16 -8 12 6 39 25 59 41 21 17 40 28 44 25 3
-3 -11 -16 -30 -28 -20 -12 -42 -29 -49 -38 -6 -10 -25 -26 -41 -36 -23 -15
-30 -16 -37 -5 -6 10 -9 6 -9 -13 0 -17 -7 -29 -19 -33 -18 -5 -119 -95 -107
-95 3 0 40 24 83 53 92 62 169 102 212 112 26 5 30 4 25 -9 -8 -20 -1 -20 39
1 18 9 35 16 40 15 4 -1 7 2 7 8 0 5 11 10 24 10 14 0 27 4 30 9 3 5 16 11 28
14 15 4 7 -7 -27 -38 -27 -25 -46 -45 -42 -45 4 0 44 27 89 59 80 57 105 69
78 35 -9 -10 -10 -18 -3 -22 5 -4 13 -14 16 -22 4 -12 6 -12 6 2 1 9 6 20 12
24 7 4 9 0 5 -14 -6 -17 -3 -19 14 -15 23 6 28 -15 5 -23 -8 -4 -13 -10 -10
-14 3 -5 -4 -11 -15 -15 -11 -3 -20 -10 -20 -15 0 -5 -7 -7 -15 -4 -9 4 -15 1
-15 -7 0 -7 -12 -27 -27 -43 l-28 -31 35 31 c19 17 54 42 78 54 23 13 42 27
42 31 0 4 9 11 20 14 11 4 33 20 49 37 22 24 29 27 34 15 4 -11 -9 -28 -40
-54 -84 -69 -98 -82 -87 -83 6 0 39 18 73 40 34 22 66 38 71 35 11 -7 77 32
70 42 -3 5 7 9 22 11 15 2 34 11 41 20 15 21 57 45 64 38 7 -6 -14 -27 -71
-71 -25 -19 -67 -56 -93 -82 -88 -88 -132 -124 -160 -132 -43 -11 -337 -16
-898 -15 -468 1 -613 5 -1185 34 -219 12 -596 40 -925 70 -121 12 -267 25
-325 30 -193 16 -1014 119 -1205 150 -66 11 -154 25 -195 31 -41 6 -102 15
-135 19 -33 5 -89 14 -125 19 -36 5 -105 17 -155 26 -183 33 -252 43 -278 38
-15 -3 -27 -1 -27 4 0 12 -166 47 -181 38 -5 -4 -16 -1 -24 5 -8 7 -26 10 -40
8 -13 -3 -26 0 -29 6 -3 7 -8 6 -15 -4 -9 -13 -12 -13 -23 1 -8 10 -48 23 -98
33 -47 9 -96 19 -110 23 -22 6 -24 5 -11 -10 7 -9 20 -17 29 -17 8 0 21 -8 28
-17 13 -17 13 -17 14 0 0 9 4 17 9 17 24 0 41 -14 41 -34 0 -20 -1 -20 -20 4
l-20 25 0 -23 c0 -19 -4 -22 -27 -16 -16 4 -33 13 -39 21 -9 10 -13 11 -16 2
-3 -8 -9 -7 -20 5 -9 9 -19 16 -22 16 -9 0 -7 -44 4 -60 6 -9 5 -17 -3 -22 -8
-5 -5 -10 11 -14 12 -4 30 -20 38 -36 17 -33 12 -32 -35 9 -17 15 -31 37 -31
50 0 14 -10 28 -28 37 -23 12 -25 15 -9 21 29 12 20 35 -13 35 -16 0 -30 4
-30 10 0 13 -54 40 -81 40 -17 0 -20 -5 -17 -25 3 -14 2 -25 -3 -25 -11 0 -22
38 -14 50 4 6 -5 10 -20 10 -23 0 -25 -2 -15 -21 16 -28 4 -36 -27 -19 -28 16
-42 40 -24 40 6 0 11 -7 11 -15 0 -8 5 -15 11 -15 6 0 9 10 7 22 -2 19 -10 23
-38 24 -19 1 -53 7 -75 12 -45 12 -137 24 -117 16 6 -3 12 -15 12 -26 0 -11
-5 -18 -12 -15 -7 2 -12 10 -10 16 1 6 -8 11 -19 11 -18 0 -19 2 -9 15 7 8 10
15 7 15 -13 0 -204 39 -219 45 -9 4 -19 2 -23 -4 -3 -6 -11 -11 -16 -11 -6 0
-7 5 -4 10 3 6 -4 10 -17 11 -13 0 -35 2 -51 3 -15 1 -27 -2 -27 -6 0 -4 -8
-8 -17 -9 -14 0 -12 -3 6 -12 19 -9 25 -9 29 1 2 6 8 12 14 12 6 0 5 -6 -2
-15 -7 -9 -10 -19 -6 -22 4 -4 11 -1 16 7 6 10 10 11 10 3 0 -7 6 -10 14 -7 8
3 17 1 21 -5 3 -6 -1 -11 -9 -11 -18 0 -18 0 -22 -49 -1 -19 1 -30 4 -24 5 8
15 8 36 -1 l28 -11 -26 -14 c-23 -13 -28 -12 -46 4 -11 10 -23 15 -26 12 -4
-4 1 -9 10 -13 9 -3 16 -10 16 -16 0 -11 25 -38 35 -38 4 0 4 7 1 16 -5 13 1
15 37 13 31 -3 49 1 61 13 21 20 14 54 -14 61 -13 3 -17 1 -13 -9 7 -19 -11
-17 -37 4 -14 11 -21 25 -18 37 4 17 7 16 17 -10 9 -22 14 -26 21 -16 5 9 18
12 39 8 23 -5 31 -3 31 8 0 7 -6 17 -12 22 -8 4 0 10 22 14 22 5 37 3 42 -4
10 -17 -2 -29 -23 -24 -15 4 -17 0 -12 -24 3 -18 1 -29 -6 -29 -19 0 -12 -17
10 -23 18 -5 20 -2 15 19 -8 30 0 31 24 2 15 -19 21 -21 31 -10 18 17 37 15
42 -5 4 -15 6 -15 12 4 8 24 14 27 39 17 42 -16 -5 -64 -56 -58 -17 2 -28 1
-25 -3 4 -3 2 -12 -4 -19 -16 -19 -1 -53 27 -60 18 -5 24 -13 24 -34 0 -15 7
-33 15 -40 19 -16 19 -31 0 -24 -8 4 -15 12 -15 20 0 8 -4 14 -10 14 -5 0 -10
7 -10 16 0 8 -6 22 -14 29 -12 12 -15 12 -19 0 -3 -7 -1 -16 6 -18 21 -7 -11
-36 -33 -30 -11 3 -20 9 -20 13 0 5 -3 16 -7 26 -5 13 -3 16 9 12 29 -12 41 7
25 38 l-15 29 -11 -28 c-6 -16 -15 -25 -21 -22 -14 8 -13 35 1 35 6 0 9 9 6
20 -3 11 -1 18 4 14 5 -3 9 1 9 9 0 9 -11 13 -34 13 -31 -1 -37 -5 -53 -43
-15 -37 -21 -43 -47 -43 l-30 0 22 -16 c22 -15 22 -17 5 -30 -17 -13 -17 -14
5 -20 24 -7 29 -20 10 -27 -8 -3 -6 -6 5 -6 9 -1 17 -7 17 -15 0 -7 7 -19 15
-26 12 -10 18 -10 32 1 13 11 17 11 20 1 3 -6 9 -9 14 -6 6 3 16 0 24 -6 8 -7
21 -10 29 -7 8 3 22 -1 33 -8 26 -20 35 -18 28 5 -8 25 20 27 52 5 20 -14 22
-13 26 2 3 13 5 14 6 3 1 -8 12 -23 25 -32 l23 -17 -8 42 c-7 38 -2 66 8 42
13 -34 30 -60 41 -60 7 0 17 -6 21 -14 5 -7 15 -11 22 -9 8 3 19 -2 26 -11 11
-14 13 -11 14 19 1 19 3 27 6 18 5 -21 45 -36 51 -19 6 19 22 12 22 -9 0 -14
-7 -20 -22 -20 l-23 -1 24 -20 c34 -28 65 -22 68 15 1 16 7 32 14 36 8 6 8 9
-2 12 -10 3 -3 16 22 40 23 22 34 40 29 48 -6 10 -9 9 -13 -1 -5 -12 -7 -11
-16 1 -23 33 20 36 58 4 20 -18 29 -45 14 -43 -23 4 -43 -2 -38 -11 3 -5 1
-10 -6 -10 -8 0 -10 -13 -6 -40 4 -29 2 -40 -8 -40 -7 0 -16 6 -18 13 -3 7 -6
6 -6 -5 -1 -25 10 -28 52 -13 32 11 37 11 37 -2 0 -10 6 -13 16 -9 8 3 12 2 9
-4 -3 -6 -13 -10 -21 -10 -8 0 -14 -7 -14 -16 0 -12 6 -15 22 -11 12 4 27 2
32 -2 19 -15 52 -17 69 -3 13 11 16 10 22 -7 3 -12 11 -22 16 -22 19 -3 24 -5
37 -12 8 -6 15 0 21 15 9 21 10 21 10 -9 1 -32 0 -32 -27 -21 -15 6 -54 15
-87 19 -99 14 -156 26 -235 47 -103 27 -208 44 -230 37 -10 -3 -21 -1 -25 5
-3 5 -19 10 -34 10 -16 0 -50 9 -76 21 -29 13 -58 19 -75 15 -18 -3 -33 0 -40
9 -6 7 -22 12 -36 11 -30 -3 -45 -16 -18 -16 10 0 40 -8 66 -18 l48 -18 -36
-13 c-26 -9 -39 -10 -47 -2 -6 6 -21 11 -34 11 -17 0 -24 7 -29 28 -3 15 -7
32 -9 38 -2 6 -22 10 -45 10 -30 -1 -45 4 -51 16 -5 10 -16 15 -23 12 -8 -3
-23 -1 -33 5 -11 5 -25 6 -33 1 -12 -7 -11 -10 5 -16 11 -4 31 -18 44 -31 13
-13 35 -26 48 -29 23 -6 33 -39 14 -46 -13 -4 -18 -32 -6 -33 6 0 34 -13 63
-28 63 -32 69 -33 76 -9 7 20 76 31 76 12 0 -6 21 -21 47 -33 l48 -22 -59 -3
c-43 -2 -63 1 -76 13 -16 14 -18 14 -23 0 -4 -8 -15 -15 -26 -15 -22 0 -34
-13 -23 -24 4 -4 7 -13 7 -19 0 -6 10 -14 22 -17 32 -8 75 -49 71 -68 -2 -9 6
-25 17 -35 20 -18 20 -18 -6 -13 -15 3 -41 19 -59 36 -33 31 -80 39 -125 21
-18 -8 -16 -10 14 -18 26 -7 37 -17 44 -38 13 -39 14 -40 32 -25 20 17 65 -5
65 -32 0 -12 7 -18 21 -18 15 0 19 -4 15 -16 -8 -22 19 -47 44 -39 14 4 20 2
20 -9 0 -8 3 -22 7 -32 5 -13 3 -16 -10 -11 -17 6 -109 -29 -115 -44 -2 -5
-12 -9 -23 -9 -10 0 -19 -6 -19 -14 0 -8 -3 -21 -6 -30 -5 -12 1 -16 24 -16
17 0 34 -4 37 -10 3 -5 14 -10 23 -10 12 0 13 3 5 8 -6 4 -16 20 -22 35 -10
25 -9 27 15 27 17 0 28 -7 31 -20 3 -13 20 -24 47 -32 22 -6 49 -18 59 -27 17
-14 17 -15 -3 -23 -13 -5 -29 -3 -43 7 -16 10 -41 13 -86 10 -34 -3 -67 -7
-71 -10 -5 -3 -20 0 -35 7 -22 10 -28 9 -36 -3 -6 -9 -4 -18 6 -25 20 -15 19
-58 -1 -78 -12 -13 -20 -14 -37 -5 -29 14 47 -56 96 -89 33 -22 45 -44 24 -43
-31 0 -125 15 -139 22 -9 5 -19 5 -22 0 -6 -10 28 -44 36 -36 7 7 136 -61 163
-86 11 -10 28 -31 37 -47 l18 -30 -38 10 c-20 6 -48 11 -62 12 -14 2 -37 6
-52 10 -25 7 -68 -6 -68 -22 0 -4 18 -19 39 -34 38 -27 71 -36 71 -20 0 4 15
13 32 20 32 12 34 11 66 -23 18 -19 38 -35 46 -35 7 0 31 -8 52 -17 l39 -18
-62 -3 c-35 -2 -71 1 -80 7 -21 10 -111 3 -119 -10 -3 -5 -13 -5 -22 0 -26 14
-102 24 -102 14 0 -13 44 -53 57 -53 5 0 18 -9 28 -20 24 -27 50 -22 50 10 0
34 35 34 52 0 7 -14 13 -20 13 -14 0 14 36 25 56 17 9 -3 12 -13 8 -25 -4 -14
0 -21 15 -25 12 -3 21 -13 21 -25 0 -16 -5 -18 -38 -12 -20 3 -45 15 -54 26
-16 18 -18 18 -43 2 -19 -13 -37 -15 -80 -9 -30 3 -55 3 -55 0 0 -4 11 -16 25
-26 13 -11 22 -26 19 -33 -6 -17 42 -56 68 -56 14 0 19 -6 16 -23 -2 -17 -9
-22 -31 -22 -33 1 -33 -4 -5 -48 17 -25 30 -34 48 -33 34 2 38 -28 6 -49 -24
-16 -29 -16 -88 3 -35 12 -87 23 -116 26 -52 4 -53 4 -40 -15 7 -11 36 -33 65
-50 43 -25 53 -27 65 -16 15 15 88 30 88 18 0 -5 27 -20 60 -34 37 -16 60 -33
60 -42 0 -9 10 -19 22 -24 l23 -8 -23 -7 c-12 -4 -38 -2 -57 4 -19 6 -79 13
-135 15 -81 3 -100 1 -100 -10 0 -8 12 -21 28 -29 15 -8 45 -35 66 -60 21 -25
45 -46 52 -46 8 0 14 -4 14 -9 0 -5 -20 -6 -44 -4 -24 3 -52 1 -61 -5 -17 -9
-16 -11 6 -22 13 -7 30 -22 38 -32 7 -11 24 -23 37 -28 25 -10 42 -36 30 -47
-4 -4 -21 -7 -39 -6 -23 1 -37 -6 -50 -23 -21 -28 -16 -41 20 -55 29 -11 26
-33 -5 -37 -12 -2 -22 -8 -22 -13 0 -5 -5 -9 -11 -9 -5 0 -8 4 -4 9 8 14 -5
19 -86 31 -41 6 -84 13 -97 16 -20 4 -22 1 -22 -41 0 -54 22 -62 39 -14 9 27
14 30 37 25 15 -4 49 -26 76 -49 49 -41 57 -41 70 -5 2 4 20 5 42 1 30 -5 40
-12 48 -34 6 -17 18 -29 31 -31 12 -2 23 -10 25 -20 5 -25 -33 -32 -64 -12
-20 14 -30 15 -44 6 -14 -8 -40 -5 -112 12 -52 13 -100 26 -106 30 -16 10 -42
-4 -42 -23 0 -9 16 -28 34 -44 31 -24 36 -25 44 -11 8 14 13 14 50 -5 22 -11
43 -25 47 -31 3 -5 20 -10 36 -10 22 0 32 6 39 25 5 14 13 25 17 25 11 0 102
-54 132 -78 15 -12 21 -24 16 -32 -10 -17 -86 -6 -97 14 -11 20 -48 21 -48 1
0 -8 -9 -15 -20 -15 -48 0 -31 -56 18 -62 21 -2 28 -9 30 -30 3 -22 -2 -30
-23 -38 -23 -9 -24 -12 -14 -31 6 -12 28 -29 50 -38 61 -26 64 -61 4 -61 -37
0 -49 -17 -39 -56 8 -33 -9 -30 -39 6 -26 31 -50 37 -77 20 -12 -7 -6 -17 29
-49 24 -22 41 -46 39 -53 -3 -7 -23 -14 -47 -16 -40 -3 -42 -4 -27 -20 31 -33
96 -122 96 -132 0 -13 -43 -13 -56 0 -11 11 -44 3 -44 -10 0 -4 11 -15 25 -24
30 -20 35 -79 9 -107 -15 -16 -15 -20 0 -41 9 -12 16 -33 16 -45 0 -17 6 -23
21 -23 27 0 22 -34 -7 -38 -14 -2 -24 5 -31 21 -15 32 -97 46 -125 20 -10 -9
-18 -11 -18 -6 0 6 -9 13 -20 16 -11 3 -20 2 -20 -3 0 -15 29 -32 47 -26 11 4
29 -3 45 -17 15 -13 46 -32 69 -42 l41 -19 18 24 18 24 31 -33 c40 -43 40 -61
-1 -62 -18 -1 -44 -5 -58 -9 -14 -4 388 -8 893 -9 l917 -1 -2 173 c-3 186 -7
164 60 329 4 9 48 59 97 110 140 146 198 220 210 271 4 15 11 24 16 21 5 -3 9
6 9 20 0 14 -3 25 -7 25 -20 -3 -34 2 -28 10 3 6 -4 15 -15 21 -11 6 -20 18
-20 26 0 10 -6 14 -14 11 -9 -4 -13 -1 -10 7 3 7 -7 18 -20 26 -21 10 -28 11
-41 0 -8 -7 -15 -8 -15 -3 0 5 -16 9 -35 10 -43 1 -65 18 -65 49 0 13 -4 24
-10 24 -5 0 -7 -13 -3 -31 5 -26 3 -30 -12 -28 -29 6 -46 76 -50 199 -2 63 -8
160 -12 215 -4 55 -5 183 0 285 4 102 4 223 1 270 -4 47 -6 289 -6 538 0 342
3 461 13 484 l12 30 65 -6 c36 -4 83 -11 106 -16 23 -5 72 -17 110 -25 96 -22
145 -54 220 -143 119 -142 420 -422 538 -500 120 -80 134 -89 166 -102 21 -8
51 -10 87 -6 54 6 59 4 212 -73 220 -110 255 -125 383 -162 72 -20 148 -50
180 -70 18 -11 96 -48 125 -60 11 -4 40 -12 65 -18 25 -5 81 -19 125 -30 44
-11 148 -25 230 -31 83 -7 170 -16 195 -22 25 -5 119 -13 210 -17 136 -6 171
-11 197 -27 18 -10 33 -25 33 -31 0 -7 7 -13 16 -13 8 0 13 -4 10 -9 -10 -15
122 -28 279 -27 154 1 368 32 525 76 36 10 83 21 105 25 22 4 66 15 97 26 32
10 69 19 82 19 14 0 40 6 58 14 18 8 56 23 83 35 63 27 88 33 149 32 29 0 55
-6 65 -15 10 -9 23 -16 30 -16 7 0 11 -6 8 -13 -3 -8 7 -21 24 -31 16 -9 29
-21 29 -25 0 -5 11 -12 25 -15 14 -4 23 -11 20 -16 -3 -6 4 -9 17 -8 32 2 128
-22 128 -33 0 -5 17 -12 39 -15 32 -5 38 -10 34 -25 -3 -10 -9 -19 -14 -19 -5
0 -9 -7 -9 -16 0 -8 4 -13 9 -10 15 10 -1 -36 -19 -54 -11 -11 -16 -27 -13
-43 3 -13 0 -28 -6 -31 -6 -4 -11 -2 -11 3 0 6 -5 11 -10 11 -6 0 -3 -12 7
-26 14 -21 15 -33 6 -65 -6 -21 -6 -39 -2 -39 5 0 9 -7 9 -15 0 -8 -5 -15 -11
-15 -20 0 -39 -33 -27 -48 6 -7 11 -32 11 -55 0 -23 5 -45 11 -50 7 -5 5 -11
-6 -18 -10 -5 -18 -18 -18 -29 0 -20 -71 -100 -89 -100 -6 0 -11 -8 -11 -18 0
-9 -13 -23 -30 -30 -25 -12 -28 -16 -18 -32 14 -23 1 -41 -13 -20 -8 11 -9 8
-5 -12 3 -15 2 -30 -4 -33 -18 -11 -10 -25 15 -25 34 0 31 -16 -5 -29 -23 -7
-30 -16 -30 -35 0 -15 5 -26 10 -26 9 0 14 14 11 33 0 4 6 7 15 7 8 0 12 -4 9
-10 -3 -5 -3 -16 2 -22 8 -13 9 -18 12 -76 1 -25 6 -35 21 -39 23 -6 27 -23 5
-23 -8 0 -15 -7 -15 -15 0 -18 12 -19 29 -3 10 11 12 9 9 -7 -2 -12 -10 -19
-21 -17 -9 2 -17 -3 -17 -11 0 -7 -12 -20 -26 -27 -27 -15 -72 -70 -57 -70 5
0 14 5 21 12 9 9 12 8 12 -5 0 -10 -8 -17 -20 -17 -13 0 -22 -9 -26 -25 -3
-14 -13 -29 -22 -34 -19 -11 -18 -74 2 -103 8 -11 12 -28 9 -37 -3 -10 -2 -12
4 -5 4 6 19 15 32 19 22 7 23 5 19 -25 -3 -20 0 -34 8 -37 7 -2 10 -11 8 -18
-7 -18 14 -29 30 -16 10 8 19 6 34 -8 12 -10 22 -23 22 -30 0 -6 6 -11 14 -11
8 0 18 -9 21 -20 3 -11 10 -20 15 -20 5 0 8 -25 6 -55 -1 -30 1 -52 6 -49 14
9 9 -9 -8 -28 -14 -14 -14 -20 -4 -33 11 -13 223 -15 1891 -15 l1879 0 0 3355
c0 1845 -3 3355 -7 3355 -3 0 -15 -7 -25 -17 -17 -15 -18 -15 -18 1 0 10 5 26
11 37 8 16 13 18 25 8 12 -10 14 -3 13 47 -1 33 -4 49 -6 37 -3 -13 -9 -20
-18 -17 -10 4 -12 0 -8 -15 4 -15 -3 -29 -21 -46 -30 -28 -34 -69 -9 -97 19
-21 11 -25 -10 -4 -13 13 -17 12 -38 -10 -17 -19 -20 -27 -11 -36 9 -9 15 -9
23 -1 12 12 39 7 39 -7 0 -5 -8 -9 -17 -9 -10 0 -29 -2 -43 -4 -14 -3 -29 -5
-33 -6 -5 0 -6 -5 -3 -10 3 -5 0 -14 -8 -20 -14 -12 -10 -57 5 -67 5 -3 9 -12
9 -21 0 -14 -2 -14 -19 1 -12 11 -21 14 -26 7 -3 -6 -1 -11 4 -11 19 0 12 -20
-6 -20 -16 -1 -16 -2 1 -15 19 -15 19 -15 -2 -15 -26 0 -28 -12 -7 -30 11 -9
12 -17 6 -23 -5 -5 -8 -24 -5 -41 5 -30 5 -30 -10 -12 -15 19 -16 18 -16 -16
0 -20 6 -39 13 -42 6 -3 3 -4 -8 -3 -13 2 -19 9 -17 20 2 9 -2 17 -8 17 -14 0
-13 -33 2 -48 9 -9 9 -12 -3 -12 -8 0 -20 5 -27 12 -9 9 -12 8 -12 -5 0 -10 7
-20 15 -23 19 -8 20 -24 1 -24 -9 0 -12 -7 -9 -18 3 -12 -7 -30 -26 -50 -17
-17 -31 -36 -31 -43 0 -8 5 -6 13 5 15 20 48 18 55 -3 3 -10 -2 -12 -22 -7
-25 6 -38 -8 -14 -16 22 -8 -3 -30 -27 -24 -15 4 -25 1 -28 -8 -4 -9 3 -16 15
-20 17 -4 19 -8 9 -20 -8 -9 -9 -16 -2 -21 11 -6 2 -28 -30 -72 l-17 -23 -7
28 c-7 26 -7 26 -16 5 -5 -13 -22 -26 -41 -32 -18 -5 -25 -10 -16 -10 24 -1
32 -36 13 -64 -8 -13 -13 -31 -10 -40 4 -8 2 -18 -4 -22 -7 -4 -11 6 -11 27 0
27 -4 34 -20 35 -11 1 -20 -2 -20 -8 0 -5 7 -9 15 -9 9 0 15 -9 15 -25 0 -15
-6 -25 -14 -25 -19 0 -29 -16 -30 -49 -1 -19 -7 -27 -23 -29 -25 -4 -30 -17
-10 -26 10 -5 10 -7 0 -12 -7 -3 -13 -15 -13 -25 0 -11 -4 -18 -9 -15 -12 8
-21 -46 -10 -60 6 -7 4 -16 -6 -24 -8 -7 -15 -17 -15 -23 0 -5 -8 -16 -17 -23
-12 -9 -13 -13 -5 -14 10 0 10 -5 2 -20 -6 -11 -15 -18 -19 -15 -5 3 -11 -2
-15 -10 -3 -8 -12 -12 -21 -9 -8 3 -15 1 -15 -5 0 -6 -8 -11 -17 -11 -10 0
-27 -7 -37 -15 -11 -8 -27 -15 -36 -15 -32 0 -99 -106 -100 -157 0 -22 64 -73
132 -106 43 -20 68 -38 68 -48 0 -9 7 -20 16 -23 12 -5 10 -10 -13 -31 -49
-43 -52 -45 -72 -45 -10 0 -21 -7 -25 -15 -3 -8 -12 -15 -20 -15 -9 0 -23 -11
-32 -26 -10 -14 -23 -23 -31 -20 -8 3 -16 -1 -19 -9 -10 -24 -53 -18 -64 8 -5
13 -9 16 -10 7 0 -12 -2 -13 -9 -1 -5 8 -19 12 -35 9 -18 -4 -26 -1 -26 9 0
19 -89 15 -112 -4 -11 -10 -27 -13 -47 -8 -24 5 -31 3 -31 -9 0 -9 -7 -16 -15
-16 -8 0 -15 7 -15 15 0 14 -12 19 -32 16 -5 0 -8 6 -8 14 0 8 -7 15 -15 15
-9 0 -12 6 -9 15 4 8 1 15 -5 15 -6 0 -11 8 -11 18 0 10 -3 22 -7 26 -8 8 -13
28 -18 85 -3 24 -11 49 -19 55 -9 6 -17 29 -19 50 -3 29 -10 42 -25 47 -12 5
-22 6 -22 3 0 -5 -59 34 -70 46 -3 3 -16 11 -30 18 -52 26 -70 39 -64 45 9 9
-43 20 -61 13 -8 -3 -15 -1 -15 4 0 19 -22 10 -27 -10 -4 -16 -8 -18 -19 -9
-10 8 -17 7 -29 -5 -18 -18 -40 -22 -30 -6 3 6 -1 10 -9 10 -19 0 -29 -17 -15
-26 8 -4 7 -9 -2 -15 -11 -7 -12 -12 -1 -29 18 -29 15 -40 -10 -36 -13 3 -27
5 -31 5 -5 1 -5 6 -1 13 5 8 2 9 -10 5 -10 -4 -20 -7 -22 -7 -2 0 1 -9 8 -20
15 -23 4 -38 -16 -21 -11 10 -15 8 -19 -6 -3 -10 -5 -3 -6 15 0 18 -5 31 -10
28 -5 -3 -7 -16 -4 -29 4 -20 3 -20 -7 -4 -6 10 -9 25 -6 33 3 8 -1 14 -9 14
-8 0 -18 7 -23 15 -5 10 -29 18 -63 22 -29 3 -60 10 -66 16 -7 5 -13 6 -13 2
0 -4 -6 -3 -12 2 -7 5 -29 10 -48 12 -19 2 -42 9 -50 16 -8 7 -62 26 -119 41
-102 26 -104 27 -119 8 -13 -18 -14 -18 -7 4 6 21 5 22 -14 10 -11 -7 -22 -19
-23 -26 -2 -11 -10 -9 -30 8 -23 18 -27 18 -21 4 5 -13 3 -16 -10 -11 -9 3
-19 2 -23 -4 -3 -6 -12 -8 -20 -5 -8 3 -14 1 -14 -4 0 -6 -9 -10 -20 -10 -12
0 -20 -7 -20 -16 0 -11 -5 -14 -16 -10 -23 9 -64 -20 -64 -44 0 -10 -5 -22
-10 -25 -6 -4 -8 -10 -5 -15 3 -4 -5 -11 -18 -15 -37 -12 -69 -12 -74 2 -3 7
-9 10 -14 7 -11 -6 -70 25 -82 44 -4 6 -17 12 -28 12 -11 0 -22 7 -25 15 -4 8
-11 15 -18 15 -6 0 -27 13 -46 28 -19 16 -45 34 -57 41 -31 16 -73 73 -79 107
-3 16 -9 33 -13 39 -5 5 -11 33 -14 60 -3 28 -6 51 -6 52 -1 0 -16 10 -34 21
-43 25 -112 48 -234 77 -195 46 -512 135 -558 156 -76 34 -100 40 -162 42 -31
1 -57 -3 -65 -11 -6 -6 -14 -41 -16 -77 -4 -63 -6 -66 -53 -109 -39 -35 -59
-45 -101 -51 -75 -11 -555 -14 -675 -4 -152 13 -328 62 -372 104 -21 20 -22
25 -10 43 8 10 17 20 21 21 17 4 44 13 65 23 12 6 28 8 36 5 8 -3 19 -1 25 5
11 11 28 14 122 22 25 2 64 9 88 14 23 6 50 8 60 6 9 -3 46 0 82 6 36 6 90 12
120 14 128 7 216 19 238 33 13 8 31 11 42 8 29 -9 36 16 9 36 -13 10 -28 18
-34 17 -5 -1 -32 5 -60 14 -93 30 -313 76 -420 89 -38 4 -113 13 -165 19 -52
6 -238 13 -414 16 -287 4 -322 7 -356 24 -40 21 -99 82 -101 105 -1 8 -2 23
-2 33 -1 10 9 29 21 43 22 23 29 24 160 26 190 2 242 5 242 16 0 5 14 6 30 2
19 -4 30 -3 30 4 0 6 15 11 33 11 18 0 38 5 45 12 7 7 12 9 12 4 0 -4 8 0 18
10 12 13 17 35 18 78 1 34 5 69 9 79 4 9 4 24 1 34 -4 9 -1 32 5 52 9 25 9 36
1 39 -7 2 -8 12 -4 25 9 25 7 125 -1 134 -3 3 1 12 9 20 8 8 11 19 8 25 -4 6
0 15 7 20 11 7 11 11 2 15 -9 3 -13 30 -13 85 0 67 2 79 15 74 8 -3 15 -1 15
3 0 5 -6 11 -13 14 -10 4 -14 29 -14 86 0 44 3 79 7 76 5 -3 11 -1 15 5 3 5 0
10 -8 10 -10 0 -13 8 -10 25 3 13 8 24 12 23 19 -2 22 4 10 19 -11 13 -11 17
-1 20 6 3 12 11 12 18 0 7 -6 16 -12 18 -8 3 -6 6 4 6 14 1 16 7 12 34 -3 17
-7 37 -9 44 -2 7 0 15 4 18 5 2 7 26 5 52 -2 27 2 58 8 71 9 18 9 30 0 54 -12
33 -6 60 9 37 7 -11 9 -11 9 2 0 8 -5 20 -11 26 -8 8 -7 19 3 41 9 16 13 43
10 62 -3 21 0 35 9 41 11 7 10 9 -3 9 -10 0 -18 2 -18 5 0 9 25 50 35 57 6 4
-1 8 -15 9 -19 1 -20 3 -7 6 13 3 17 11 14 24 -3 10 0 19 5 19 7 0 7 4 1 13
-12 15 -13 47 -1 47 13 0 9 30 -4 30 -7 0 -5 5 5 11 12 7 16 17 12 30 -4 10
-2 19 3 19 6 0 12 18 14 40 2 28 0 40 -9 40 -7 0 -13 5 -13 10 0 6 4 10 10 10
5 0 9 8 8 18 -4 47 3 82 16 82 10 0 12 9 6 40 -4 22 -4 40 0 40 5 0 6 9 3 19
-3 13 2 24 16 33 25 15 27 28 6 28 -19 0 -19 26 0 34 8 3 15 17 15 30 0 19 4
24 16 19 14 -5 15 -3 6 14 -8 15 -7 25 5 42 14 21 14 23 -7 28 l-21 6 22 11
c28 14 28 28 0 42 -18 9 -19 12 -7 17 9 4 23 4 31 1 8 -4 15 -1 15 5 0 6 -7
11 -16 11 -11 0 -14 6 -8 23 4 12 10 24 14 27 11 9 9 85 -3 93 -7 5 -4 6 8 3
17 -5 23 1 34 30 10 28 11 38 1 44 -9 5 -6 12 10 23 13 9 17 17 11 22 -6 3
-11 17 -11 31 0 21 4 24 20 19 21 -7 28 9 10 20 -6 4 -8 15 -5 26 5 14 2 19
-12 19 -15 0 -16 2 -3 10 8 5 15 22 15 37 0 21 5 28 18 27 17 -2 17 -1 2 16
-15 17 -15 19 1 28 15 9 16 13 5 26 -10 12 -10 16 -2 16 8 0 10 8 6 19 -4 12
0 21 11 25 11 4 15 14 12 31 -3 14 0 26 8 29 10 4 11 12 4 31 -7 18 -7 33 1
47 6 11 9 31 6 44 -2 13 -1 21 3 19 12 -7 18 41 8 59 -6 10 -5 16 2 16 5 0 10
12 10 27 0 14 8 35 18 46 9 11 12 17 5 14 -7 -4 -14 1 -18 13 -8 24 2 43 17
34 7 -5 9 5 4 30 -6 32 -5 36 14 36 24 0 27 15 3 24 -14 6 -14 8 -1 19 23 18
30 47 13 53 -8 4 -15 15 -15 25 0 11 -7 20 -17 20 -10 1 -4 4 12 8 23 5 30 12
29 29 0 12 2 22 5 22 3 0 5 21 4 47 -1 43 0 46 13 28 14 -18 14 -18 14 3 0 12
-4 22 -10 22 -5 0 -7 7 -3 16 6 15 7 15 20 -1 7 -10 15 -16 18 -13 3 3 -1 11
-10 18 -18 15 -20 50 -2 50 8 0 7 4 -3 10 -13 9 -13 11 0 20 10 6 11 10 3 10
-7 0 -13 7 -13 15 0 8 4 15 8 15 12 0 10 44 -2 52 -7 5 -7 8 2 8 6 0 12 5 12
11 0 6 -10 8 -22 5 -13 -3 -17 -3 -10 0 6 3 12 17 12 31 0 21 3 23 14 14 10
-8 16 -9 21 -1 4 6 -4 19 -17 30 -13 11 -16 18 -8 15 8 -3 22 0 30 5 13 9 13
11 0 20 -13 8 -12 10 3 10 9 0 17 6 17 14 0 8 6 16 13 19 8 3 6 10 -8 21 -17
13 -18 15 -3 16 12 0 19 12 24 45 4 30 14 51 27 60 20 14 20 15 3 15 -17 0
-18 2 -5 18 8 9 21 29 28 43 10 20 18 25 38 21 19 -4 24 -2 18 8 -5 8 -3 11 6
8 8 -3 22 -1 31 4 14 7 16 5 11 -9 -5 -15 -4 -16 8 -7 21 17 72 27 64 14 -5
-8 4 -9 29 -5 20 4 36 3 36 -2 0 -5 19 -10 43 -11 156 -6 202 -11 205 -21 3
-8 9 -8 23 0 14 7 24 7 33 0 9 -7 16 -7 24 1 9 9 12 9 12 0 0 -6 7 -9 15 -6 8
4 15 2 15 -3 0 -6 42 -9 100 -8 l100 2 35 38 c19 22 35 44 35 51 0 6 6 17 14
24 8 6 13 17 10 24 -3 7 2 26 11 42 8 16 15 39 15 52 0 12 4 22 9 22 5 0 11
18 15 40 3 22 11 40 16 40 6 0 10 11 10 25 0 13 11 49 24 79 18 40 31 57 49
61 14 4 27 15 30 26 7 25 23 24 37 -1 6 -11 17 -20 24 -20 12 0 27 -27 30 -55
1 -5 7 -14 15 -19 11 -7 11 -10 0 -17 -10 -6 -11 -11 -3 -16 14 -10 15 -44 2
-60 -5 -7 -6 -18 -2 -25 9 -13 12 -35 19 -148 2 -36 6 -83 9 -105 9 -64 15
-389 8 -400 -12 -18 -11 -116 1 -108 6 4 8 -2 4 -16 -3 -12 -2 -35 3 -51 5
-16 4 -60 -2 -102 -6 -40 -12 -167 -14 -283 -6 -288 -8 -335 -16 -335 -4 0 -6
-84 -5 -187 1 -191 -7 -376 -21 -425 -4 -15 -5 -64 -2 -110 3 -46 1 -132 -3
-193 -7 -102 -2 -430 8 -445 2 -3 -1 -35 -6 -71 -10 -61 -16 -246 -22 -644 -2
-99 -6 -189 -11 -200 -7 -17 -6 -17 4 -5 10 13 11 12 4 -5 -13 -35 -25 -185
-29 -350 -7 -366 -9 -410 -15 -420 -5 -9 1 -123 16 -257 l6 -57 56 -27 c63
-30 100 -41 277 -85 97 -24 148 -30 267 -34 81 -2 163 -7 182 -11 31 -5 35 -4
30 11 -5 11 -14 15 -30 11 -12 -3 -26 -2 -29 4 -3 5 -15 10 -26 10 -10 0 -19
4 -19 8 0 5 -11 15 -25 22 -14 7 -25 17 -25 22 0 5 -11 21 -24 35 -14 15 -35
53 -47 85 -20 55 -21 71 -16 211 3 84 8 175 11 202 3 28 10 111 16 185 6 74
15 164 20 200 5 36 12 121 16 190 8 174 10 202 22 315 6 55 13 132 17 170 3
39 10 120 15 180 6 61 17 193 25 295 9 102 22 232 31 290 8 58 19 168 24 245
6 77 17 199 25 270 8 72 16 155 19 185 2 30 9 105 15 165 6 61 15 164 21 230
6 66 12 131 14 145 2 14 7 52 10 85 4 33 11 85 16 115 5 30 11 89 15 130 11
144 78 360 111 360 7 0 20 12 28 28 8 15 15 21 16 14 0 -10 4 -10 19 0 16 10
23 9 39 -5 10 -9 22 -14 25 -10 4 3 15 0 24 -8 10 -8 30 -21 46 -29 15 -7 27
-19 27 -25 0 -6 16 -17 35 -25 19 -8 35 -17 35 -21 0 -7 35 -21 58 -23 7 -1
31 -18 52 -40 21 -21 43 -35 49 -31 6 3 14 -1 17 -9 3 -9 9 -14 13 -11 12 7
85 -18 105 -37 10 -9 23 -15 29 -11 5 3 13 0 17 -8 7 -10 12 -10 23 0 12 9 16
9 20 -1 4 -10 8 -10 16 2 9 12 11 12 16 -2 4 -10 4 -22 0 -27 -3 -7 0 -8 9 -5
8 3 16 12 18 20 2 11 10 8 31 -11 15 -14 27 -22 27 -18 0 4 7 -1 15 -11 9 -12
29 -20 52 -21 21 -1 50 -3 64 -4 19 -1 26 -6 25 -18 -1 -14 6 -17 30 -15 23 2
40 -4 60 -23 24 -23 102 -65 118 -65 3 0 3 7 0 15 -4 8 -1 15 5 15 6 0 11 -7
11 -15 0 -18 30 -20 31 -2 0 6 7 -1 14 -18 12 -26 14 -27 15 -8 0 16 5 21 15
17 8 -4 12 -10 9 -15 -3 -5 10 -9 29 -9 21 0 41 -7 52 -20 22 -24 38 -25 55
-5 8 10 27 14 54 13 l41 -1 -42 -4 c-48 -5 -60 -22 -14 -21 15 1 34 -2 40 -7
8 -4 14 1 18 14 3 12 9 21 13 21 7 0 23 -37 22 -50 0 -3 8 -6 19 -6 13 0 19 7
19 24 l0 23 38 -26 c32 -22 37 -23 41 -9 2 14 5 15 13 3 7 -11 11 -11 15 -1 7
17 26 15 20 -3 -8 -19 11 -31 26 -16 15 15 27 14 27 -4 0 -8 5 -15 11 -15 6 0
9 7 5 15 -3 9 0 15 8 15 7 0 19 -7 26 -15 9 -10 32 -15 76 -15 35 0 64 -4 64
-9 0 -9 81 -27 108 -24 8 0 11 -5 8 -13 -4 -10 3 -14 27 -13 18 0 26 3 20 6
-7 2 -13 9 -13 14 0 6 4 8 8 5 14 -8 41 31 60 89 11 30 26 63 35 73 10 10 17
24 17 30 0 6 6 15 13 19 7 4 24 26 38 48 33 50 159 177 217 217 23 16 64 39
90 50 26 12 49 24 52 27 9 10 94 49 123 55 l27 6 -1 1488 c0 1597 2 1539 -48
1320 -15 -63 -34 -116 -57 -153 -18 -31 -45 -91 -58 -134 -14 -42 -45 -134
-70 -206 -25 -71 -46 -131 -46 -132 0 -12 -49 0 -54 13 -6 16 16 121 34 159 5
11 19 56 30 100 12 44 28 95 37 113 13 29 13 44 3 99 -15 79 -7 159 25 250 69
199 104 283 117 283 5 0 8 7 8 15 0 8 18 33 40 55 l40 41 0 349 0 350 -1445 0
c-1272 0 -1445 -2 -1445 -15 0 -8 -4 -15 -10 -15 -5 0 -10 7 -10 15 0 13 -17
15 -112 13 -101 -3 -113 -5 -116 -22 -2 -10 1 -22 7 -26 9 -5 9 -24 1 -74 -6
-37 -10 -83 -8 -101 1 -19 -3 -40 -9 -46 -15 -15 -100 -22 -108 -9 -5 8 -11 7
-21 -1 -21 -17 -26 -7 -13 30 6 18 9 35 5 38 -3 4 -6 -2 -7 -13 -1 -15 -3 -13
-9 6 -13 41 -11 60 6 60 11 0 14 5 10 16 -4 9 0 25 9 34 20 22 9 50 -19 51
-16 1 -17 2 -3 6 25 6 21 40 -5 47 -13 3 -1052 6 -2310 6 -2258 0 -2288 0
-2288 -19z m4980 -27 c12 -31 12 -34 1 -34 -5 0 -11 8 -15 18 -3 9 -9 23 -12
30 -3 6 -1 12 5 12 7 0 16 -12 21 -26z m-363 -40 c-3 -3 -12 -4 -19 -1 -8 3
-5 6 6 6 11 1 17 -2 13 -5z m363 -29 c0 -8 -4 -15 -10 -15 -5 0 -10 7 -10 15
0 8 5 15 10 15 6 0 10 -7 10 -15z m-10 -75 c0 -5 -8 -10 -17 -10 -15 0 -16 2
-3 10 19 12 20 12 20 0z m50 -20 c0 -5 -2 -10 -4 -10 -3 0 -8 5 -11 10 -3 6
-1 10 4 10 6 0 11 -4 11 -10z m-55 -20 c-3 -5 -10 -10 -16 -10 -5 0 -9 5 -9
10 0 6 7 10 16 10 8 0 12 -4 9 -10z m1305 -4210 c0 -5 -7 -10 -16 -10 -8 0
-12 5 -9 10 3 6 10 10 16 10 5 0 9 -4 9 -10z m1520 -3644 c0 -11 -19 -15 -25
-6 -3 5 1 10 9 10 9 0 16 -2 16 -4z m-30 -20 c0 -3 -4 -8 -10 -11 -5 -3 -10
-1 -10 4 0 6 5 11 10 11 6 0 10 -2 10 -4z m-30 -90 c0 -2 -7 -6 -15 -10 -8 -3
-15 -1 -15 4 0 6 7 10 15 10 8 0 15 -2 15 -4z m-66 -98 c-1 -30 -5 -34 -34
-29 -15 2 -12 28 6 45 23 23 29 20 28 -16z m-44 -112 c0 -3 -4 -8 -10 -11 -5
-3 -10 -1 -10 4 0 6 5 11 10 11 6 0 10 -2 10 -4z m-30 -96 c0 -5 -5 -10 -11
-10 -5 0 -7 5 -4 10 3 6 8 10 11 10 2 0 4 -4 4 -10z m-240 -340 c0 -5 -4 -10
-10 -10 -5 0 -10 5 -10 10 0 6 5 10 10 10 6 0 10 -4 10 -10z m-87 -205 c-3 -9
-8 -14 -10 -11 -3 3 -2 9 2 15 9 16 15 13 8 -4z m-336 -577 c-3 -8 -6 -5 -6 6
-1 11 2 17 5 13 3 -3 4 -12 1 -19z m473 12 c0 -5 -4 -10 -9 -10 -6 0 -13 5
-16 10 -3 6 1 10 9 10 9 0 16 -4 16 -10z m-10125 -948 c-3 -3 -11 0 -18 7 -9
10 -8 11 6 5 10 -3 15 -9 12 -12z m2305 -24 c0 -6 -7 -7 -16 -4 -9 3 -18 6
-20 6 -3 0 -3 4 1 10 7 11 35 2 35 -12z m-2215 2 c3 -5 1 -10 -4 -10 -6 0 -11
5 -11 10 0 6 2 10 4 10 3 0 8 -4 11 -10z m151 -28 c-9 -2 -13 -9 -10 -15 4 -7
-2 -4 -12 6 -16 15 -17 19 -4 27 9 6 20 5 29 -3 12 -10 12 -12 -3 -15z m228
-48 c3 -8 2 -12 -4 -9 -6 3 -10 10 -10 16 0 14 7 11 14 -7z m195 -30 c-14 -18
-24 -11 -15 11 3 9 11 13 16 10 8 -5 7 -11 -1 -21z m4561 2 c0 -3 -4 -8 -10
-11 -5 -3 -10 -1 -10 4 0 6 5 11 10 11 6 0 10 -2 10 -4z m-4520 -36 c0 -5 -4
-10 -9 -10 -6 0 -13 5 -16 10 -3 6 1 10 9 10 9 0 16 -4 16 -10z m-183 -22 c-3
-8 -6 -5 -6 6 -1 11 2 17 5 13 3 -3 4 -12 1 -19z m-197 -19 c0 -4 -7 -6 -15
-3 -8 4 -15 10 -15 15 0 4 7 6 15 3 8 -4 15 -10 15 -15z m402 -29 c2 -22 1
-36 -3 -32 -10 11 -19 83 -9 77 4 -3 10 -23 12 -45z m4762 25 c-10 -8 -26 -14
-34 -14 -11 0 -10 3 4 14 11 8 27 15 35 15 11 0 10 -4 -5 -15z m856 11 c0 -3
-4 -8 -10 -11 -5 -3 -10 -1 -10 4 0 6 5 11 10 11 6 0 10 -2 10 -4z m-6208 -45
c-10 -6 -7 -14 10 -37 12 -16 27 -33 33 -37 5 -5 0 -5 -12 -2 -14 4 -23 2 -23
-4 0 -26 -16 -8 -18 20 -3 38 -10 51 -23 44 -14 -10 -11 3 8 25 12 13 20 17
28 9 7 -7 6 -12 -3 -18z m496 -39 c6 -2 12 3 12 12 0 9 2 16 4 16 2 0 11 3 20
6 12 4 16 0 16 -15 0 -12 -4 -21 -9 -21 -5 0 -11 -10 -13 -22 -4 -30 -28 -36
-28 -6 -1 20 -2 21 -11 6 -19 -33 -28 -19 -27 40 0 56 0 57 12 23 6 -19 17
-36 24 -39z m-81 -21 c-14 -6 -17 4 -9 45 l7 39 5 -40 c3 -22 1 -42 -3 -44z
m203 63 c0 -8 -5 -12 -10 -9 -6 4 -8 11 -5 16 9 14 15 11 15 -7z m149 -35 l23
-50 40 6 c37 7 39 6 30 -12 -6 -10 -8 -31 -5 -46 6 -28 -2 -33 -27 -17 -9 6
-17 5 -21 -2 -4 -6 -13 1 -22 19 -11 21 -13 33 -5 41 7 7 4 14 -11 21 -12 7
-21 20 -21 31 0 10 -4 22 -10 25 -5 3 -10 13 -10 21 0 28 17 13 39 -37z m8121
21 c-14 -10 -27 -17 -29 -14 -6 5 31 33 44 33 6 1 -1 -8 -15 -19z m-7987 -11
c4 -16 3 -18 -9 -8 -7 6 -11 15 -8 20 8 13 11 11 17 -12z m-543 -9 c0 -5 -4
-10 -10 -10 -5 0 -10 5 -10 10 0 6 5 10 10 10 6 0 10 -4 10 -10z m7904 -2
c-24 -40 -210 -226 -232 -232 -19 -6 -217 -36 -275 -42 -28 -3 -36 -1 -31 9 4
6 -1 5 -12 -4 -20 -18 -74 -31 -74 -19 0 4 11 15 25 24 45 30 116 100 111 111
-2 6 5 17 15 23 21 14 26 3 7 -17 -11 -10 -9 -11 6 -5 18 7 18 4 -4 -27 -13
-19 -28 -35 -32 -37 -4 -2 -4 -10 -1 -18 4 -10 0 -12 -11 -8 -9 3 -16 1 -16
-5 0 -23 27 -9 90 48 36 33 67 58 69 55 2 -2 -1 -10 -8 -18 -19 -22 10 -26 33
-4 24 22 36 23 36 3 0 -26 24 -16 75 33 8 6 18 12 24 12 5 0 15 8 20 18 7 12
10 13 11 3 0 -11 5 -10 20 4 12 11 20 13 20 6 0 -6 -15 -20 -32 -31 -18 -11
-29 -20 -24 -20 5 0 -1 -12 -15 -26 -20 -22 -21 -25 -4 -16 11 6 61 51 110
101 83 82 118 110 99 79z m536 -13 c-7 -9 -15 -13 -17 -11 -7 7 7 26 19 26 6
0 6 -6 -2 -15z m-7828 -30 c2 -14 -3 -21 -19 -23 -13 -2 -23 1 -23 7 0 20 -18
11 -24 -11 l-7 -23 -11 22 c-17 35 -4 54 32 47 21 -5 30 -3 30 7 0 19 18 -2
22 -26z m38 13 c0 -16 -3 -19 -11 -11 -6 6 -8 16 -5 22 11 17 16 13 16 -11z
m73 9 c4 3 7 1 7 -5 0 -18 -27 -14 -34 4 -5 13 -4 14 7 6 8 -7 17 -9 20 -5z
m7621 -2 c3 -8 0 -14 -7 -12 -7 1 -11 -4 -9 -10 2 -15 -14 -17 -22 -4 -9 14 4
41 19 41 7 0 15 -7 19 -15z m-867 -20 c-10 -7 -29 -27 -41 -43 -12 -17 -50
-61 -84 -99 -34 -37 -70 -78 -79 -91 -15 -18 -33 -24 -98 -32 -117 -14 -260
-28 -340 -34 l-70 -5 25 19 c27 21 45 26 35 10 -4 -6 7 -10 25 -10 17 0 29 4
26 8 -2 4 4 8 15 9 10 1 33 13 51 26 55 41 96 59 102 44 4 -8 8 -9 11 -1 3 6
13 20 21 30 9 10 13 13 9 7 -3 -7 -1 -13 4 -13 6 0 11 6 11 13 0 14 88 92 96
85 2 -3 -9 -18 -24 -34 -15 -16 -35 -39 -46 -51 -18 -22 -18 -22 3 -20 12 1
21 7 21 14 0 6 5 15 12 19 7 5 9 2 4 -7 -4 -8 -1 -5 6 5 22 33 66 75 71 69 5
-5 76 43 88 60 11 15 61 37 71 31 5 -3 -12 -26 -37 -51 -26 -25 -44 -47 -42
-50 3 -2 15 5 27 17 11 11 25 18 29 15 5 -2 12 2 15 11 4 9 9 15 12 12 3 -3
21 10 40 29 20 19 39 32 42 28 4 -4 -1 -13 -11 -20z m-7519 -9 c3 -12 -1 -17
-10 -14 -7 3 -15 13 -16 22 -3 12 1 17 10 14 7 -3 15 -13 16 -22z m26 8 c3 -8
2 -12 -4 -9 -6 3 -10 10 -10 16 0 14 7 11 14 -7z m-226 -27 c2 -10 -3 -17 -12
-17 -10 0 -16 9 -16 21 0 24 23 21 28 -4z m982 -15 c0 -7 -4 -10 -10 -7 -5 3
-10 16 -10 28 0 18 2 19 10 7 5 -8 10 -21 10 -28z m3850 28 c0 -5 -5 -10 -11
-10 -5 0 -7 5 -4 10 3 6 8 10 11 10 2 0 4 -4 4 -10z m3034 -4 c-3 -8 -13 -17
-22 -21 -13 -5 -13 -2 3 15 21 24 26 25 19 6z m-7774 -5 c0 -6 -4 -13 -10 -16
-5 -3 -10 1 -10 9 0 9 5 16 10 16 6 0 10 -4 10 -9z m8425 -4 c-28 -19 -57 -29
-50 -17 3 6 13 10 21 10 8 0 14 5 14 10 0 6 8 10 17 10 15 0 15 -2 -2 -13z
m-715 0 c0 -2 -10 -12 -21 -23 -22 -19 -22 -19 -8 4 12 19 29 30 29 19z m540
-7 c0 -5 -5 -10 -11 -10 -5 0 -7 5 -4 10 3 6 8 10 11 10 2 0 4 -4 4 -10z
m-7726 -16 c8 -21 8 -24 -3 -24 -5 0 -11 9 -14 20 -6 24 8 27 17 4z m226 6 c0
-5 -4 -10 -10 -10 -5 0 -10 5 -10 10 0 6 5 10 10 10 6 0 10 -4 10 -10z m267
-12 c-3 -8 -6 -5 -6 6 -1 11 2 17 5 13 3 -3 4 -12 1 -19z m291 7 c12 -3 22
-11 22 -16 0 -6 -8 -5 -20 1 -11 6 -25 8 -31 5 -14 -10 -41 3 -34 15 4 6 14 9
23 6 10 -2 27 -7 40 -11z m4748 0 c-11 -8 -25 -15 -30 -15 -6 0 -2 7 8 15 11
8 25 15 30 15 6 0 2 -7 -8 -15z m1318 0 c-4 -8 -11 -15 -16 -15 -6 0 -5 6 2
15 7 8 14 15 16 15 2 0 1 -7 -2 -15z m-6384 -5 c0 -5 -4 -10 -10 -10 -5 0 -10
5 -10 10 0 6 5 10 10 10 6 0 10 -4 10 -10z m4280 0 c0 -5 -4 -10 -10 -10 -5 0
-10 5 -10 10 0 6 5 10 10 10 6 0 10 -4 10 -10z m1390 -20 c-32 -24 -40 -16
-10 10 13 11 26 18 29 14 3 -3 -5 -14 -19 -24z m1366 -17 c-27 -24 -34 -43
-16 -43 6 0 10 4 10 8 0 4 8 8 18 9 9 1 27 4 40 8 13 4 22 3 22 -3 0 -14 -57
-32 -98 -30 -18 1 -38 -4 -44 -10 -7 -7 -18 -12 -26 -12 -12 0 -12 3 -2 15 7
8 16 15 21 15 4 0 27 20 51 45 24 25 45 40 47 34 2 -6 -8 -22 -23 -36z m-7783
23 c6 -15 -1 -26 -15 -26 -4 0 -8 9 -8 20 0 23 15 27 23 6z m6337 9 c0 -7 -43
-45 -62 -56 -31 -17 -19 5 19 34 37 27 43 31 43 22z m1140 -15 c-24 -15 -36
-11 -14 4 10 8 21 12 24 10 2 -3 -2 -9 -10 -14z m86 -18 c-10 -10 -29 15 -21
28 6 9 10 8 17 -4 6 -10 7 -20 4 -24z m424 19 c0 -20 -11 -26 -70 -35 l-35 -6
31 14 c17 8 36 22 43 30 18 22 31 20 31 -3z m-107 -12 c-8 -8 -13 -7 -18 2 -5
8 -4 10 3 5 7 -4 12 -2 12 5 0 7 3 9 7 6 4 -4 2 -12 -4 -18z m-7201 -3 c12
-18 9 -31 -4 -18 -7 7 -24 12 -39 12 -42 0 -42 15 -1 16 21 1 40 -4 44 -10z
m-458 -12 c11 -28 7 -44 -9 -38 -8 4 -15 17 -15 30 0 27 15 32 24 8z m33 -6
c-3 -8 -6 -5 -6 6 -1 11 2 17 5 13 3 -3 4 -12 1 -19z m4393 12 c-8 -5 -19 -10
-25 -10 -5 0 -3 5 5 10 8 5 20 10 25 10 6 0 3 -5 -5 -10z m-4190 -12 c0 -4 -4
-8 -9 -8 -6 0 -12 4 -15 8 -3 5 1 9 9 9 8 0 15 -4 15 -9z m308 -13 c-3 -3 -9
2 -12 12 -6 14 -5 15 5 6 7 -7 10 -15 7 -18z m5117 15 c-3 -5 -16 -15 -28 -21
-22 -12 -22 -12 -3 10 19 21 43 30 31 11z m-4655 -10 c0 -5 -4 -10 -9 -10 -6
0 -13 5 -16 10 -3 6 1 10 9 10 9 0 16 -4 16 -10z m135 1 c3 -5 1 -12 -4 -15
-5 -3 -7 -15 -4 -25 6 -23 -13 -37 -31 -22 -19 16 -8 71 15 71 10 0 20 -4 24
-9z m5305 3 c0 -3 -26 -31 -57 -62 -32 -31 -57 -59 -56 -63 2 -4 -9 -17 -24
-29 -14 -11 -24 -23 -21 -25 8 -8 52 11 67 29 7 9 18 16 24 16 5 0 16 8 23 18
9 11 13 13 14 4 0 -7 -11 -23 -25 -36 -29 -27 -22 -43 10 -22 19 12 21 12 21
-5 0 -11 -5 -19 -11 -19 -11 -1 -74 -6 -188 -16 l-78 -6 54 51 c51 48 77 65
61 40 -15 -25 56 26 107 77 48 47 79 66 79 48z m-6410 -39 c0 -14 -4 -25 -10
-25 -11 0 -14 33 -3 43 11 11 13 8 13 -18z m1144 7 c-1 -7 -2 -29 -3 -49 -3
-35 -4 -36 -11 -13 -13 41 -12 82 3 78 6 -3 12 -10 11 -16z m363 -14 c-3 -8
-6 -5 -6 6 -1 11 2 17 5 13 3 -3 4 -12 1 -19z m-543 -20 c-4 -6 -10 -5 -15 3
-14 22 -10 33 6 19 8 -7 12 -17 9 -22z m-932 4 c3 -11 0 -19 -8 -19 -16 0 -16
0 -8 21 8 21 11 20 16 -2z m104 -29 c-11 -11 -17 4 -9 23 7 18 8 18 11 1 2
-10 1 -21 -2 -24z m254 -30 c0 -13 -3 -13 -15 -3 -9 8 -15 9 -15 2 0 -6 5 -14
10 -17 6 -3 10 -15 10 -26 0 -24 25 -35 44 -20 11 9 16 9 23 -2 4 -8 18 -18
31 -22 19 -5 23 -3 20 11 -2 9 2 19 8 21 7 2 11 -4 10 -13 0 -10 10 -24 24
-31 24 -13 24 -14 -10 -8 -19 3 -68 11 -108 18 -40 7 -73 17 -74 22 0 6 -4 15
-9 22 -7 7 -6 12 3 15 7 3 13 22 14 44 1 21 3 44 3 49 2 15 31 -45 31 -62z
m869 20 c1 -7 -3 -13 -9 -13 -5 0 -10 15 -9 33 0 27 2 29 9 12 5 -11 9 -26 9
-32z m5216 8 c-2 -5 -14 -11 -26 -14 -20 -5 -20 -5 -4 13 17 18 41 18 30 1z
m-6265 -37 c0 -15 6 -24 15 -24 8 0 15 9 15 20 0 21 24 28 35 10 3 -5 15 -10
25 -10 14 0 18 -7 18 -30 -1 -16 -2 -30 -4 -30 -14 0 -34 15 -34 26 0 8 -5 14
-11 14 -5 0 -7 -5 -4 -10 5 -8 -10 -9 -47 -4 -61 8 -66 10 -50 26 7 7 12 23
12 36 0 21 2 22 15 12 8 -7 15 -23 15 -36z m6321 17 c-6 -10 -21 -21 -33 -24
-20 -6 -19 -3 7 18 36 30 38 30 26 6z m-5891 -18 c0 -20 -24 -11 -28 10 -2 12
1 15 12 11 9 -3 16 -13 16 -21z m50 10 c0 -5 -5 -15 -10 -23 -8 -12 -10 -11
-10 8 0 12 5 22 10 22 6 0 10 -3 10 -7z m-90 -33 c0 -15 -5 -12 -26 11 -19 22
-19 22 4 10 12 -6 22 -16 22 -21z m496 16 c8 -8 14 -19 14 -25 0 -6 4 -11 10
-11 5 0 7 -7 4 -15 -8 -20 -26 -19 -22 1 3 14 -7 23 -41 41 -4 2 9 23 15 23 3
0 12 -6 20 -14z m41 -13 c-16 -16 -17 -16 -17 0 0 10 5 15 10 12 6 -3 10 -1
10 6 0 7 3 9 7 5 4 -3 -1 -14 -10 -23z m-717 2 c0 -8 -2 -15 -4 -15 -2 0 -6 7
-10 15 -3 8 -1 15 4 15 6 0 10 -7 10 -15z m380 5 c0 -5 -2 -10 -4 -10 -3 0 -8
5 -11 10 -3 6 -1 10 4 10 6 0 11 -4 11 -10z m-5 -49 c-6 -5 -25 10 -25 20 0 5
6 4 14 -3 8 -7 12 -15 11 -17z m765 -1 c0 -5 -4 -10 -10 -10 -5 0 -10 5 -10
10 0 6 5 10 10 10 6 0 10 -4 10 -10z m-2117 -30 c34 -41 11 -77 -27 -41 -12
12 -28 21 -34 21 -7 0 -12 7 -12 16 0 8 4 13 8 10 4 -2 14 -1 22 5 21 12 23
12 43 -11z m1162 -10 c3 -5 1 -10 -4 -10 -6 0 -11 5 -11 10 0 6 2 10 4 10 3 0
8 -4 11 -10z m40 -10 c3 -5 2 -10 -4 -10 -5 0 -13 5 -16 10 -3 6 -2 10 4 10 5
0 13 -4 16 -10z m67 -1 c2 -7 26 -14 53 -16 28 -3 55 -10 60 -15 7 -7 -9 -8
-49 -3 -72 8 -109 21 -101 35 8 14 32 13 37 -1z m378 -18 c0 -11 -4 -23 -10
-26 -6 -4 -10 5 -10 19 0 14 5 26 10 26 6 0 10 -9 10 -19z m64 -14 c15 -24 -3
-35 -20 -13 -8 11 -14 24 -14 29 0 13 22 3 34 -16z m-1626 2 c-2 -6 -8 -10
-13 -10 -5 0 -11 4 -13 10 -2 6 4 11 13 11 9 0 15 -5 13 -11z m1672 1 c0 -5
-4 -10 -10 -10 -5 0 -10 5 -10 10 0 6 5 10 10 10 6 0 10 -4 10 -10z m-313 -16
c-3 -3 -12 -4 -19 -1 -8 3 -5 6 6 6 11 1 17 -2 13 -5z m83 -14 c13 -9 13 -10
0 -9 -8 1 -26 5 -40 9 l-25 8 25 1 c14 0 32 -4 40 -9z m7000 -87 c0 -7 7 -13
16 -13 11 0 14 -5 10 -16 -5 -13 -1 -15 20 -10 22 6 25 4 20 -9 -3 -9 -6 -31
-6 -48 0 -24 -3 -28 -10 -17 -5 8 -10 25 -10 38 0 13 -4 20 -10 17 -13 -8 -13
-52 1 -60 6 -4 8 -14 5 -22 -4 -10 -2 -13 8 -10 16 6 12 -16 -6 -40 -5 -7 -5
-14 1 -17 6 -4 7 -14 4 -23 -5 -12 -3 -14 6 -8 10 5 11 2 6 -14 -4 -13 -1 -28
5 -36 10 -12 8 -24 -9 -57 -13 -28 -17 -46 -11 -52 7 -7 10 -4 10 7 0 10 8 17
18 17 13 0 14 -2 4 -9 -8 -5 -11 -17 -7 -33 5 -19 1 -27 -17 -36 l-23 -11 23
0 c21 -1 22 -4 17 -48 -3 -27 -9 -65 -14 -86 -5 -22 -5 -39 0 -43 5 -3 9 -12
9 -20 0 -8 -4 -13 -9 -9 -5 3 -9 -8 -9 -24 1 -17 6 -29 12 -28 6 1 11 -6 11
-15 0 -10 -4 -18 -9 -17 -5 0 -12 -5 -17 -12 -4 -7 -27 -15 -51 -18 -44 -5
-235 -3 -298 3 -19 2 -87 7 -150 10 -110 5 -181 12 -245 22 -32 6 -194 29
-314 45 -151 20 -290 48 -319 63 -31 16 -72 65 -72 85 0 6 22 33 48 59 184
179 222 217 222 223 0 4 22 24 49 44 44 31 66 39 178 60 204 39 365 74 552
121 96 24 179 41 184 37 6 -3 7 -1 4 4 -7 11 53 26 106 27 15 0 27 4 27 8 0 5
9 3 20 -4 11 -7 20 -18 20 -25z m-8385 -233 c-3 -5 -10 -10 -16 -10 -5 0 -9 5
-9 10 0 6 7 10 16 10 8 0 12 -4 9 -10z m3580 -4 c14 -14 10 -26 -9 -26 -6 0
-22 9 -36 20 l-25 20 28 0 c16 0 35 -6 42 -14z m245 -21 c6 -8 9 -19 5 -24 -3
-6 0 -8 8 -5 10 3 20 -12 34 -50 18 -49 19 -58 6 -76 -8 -11 -24 -20 -35 -20
-28 0 -88 22 -88 32 0 4 -21 17 -47 28 -59 26 -86 59 -77 95 4 17 10 23 18 17
6 -5 20 -6 31 -2 15 6 26 1 42 -17 22 -25 47 -24 37 1 -3 7 5 18 18 24 31 14
34 14 48 -3z m4650 -15 c0 -5 -5 -10 -11 -10 -5 0 -7 5 -4 10 3 6 8 10 11 10
2 0 4 -4 4 -10z m-8649 -99 c36 -20 46 -30 35 -34 -9 -4 -22 -4 -30 -1 -7 3
-40 7 -72 8 -33 2 -63 4 -68 5 -19 2 39 51 61 51 13 0 46 -13 74 -29z m-7 -94
c38 -23 71 -48 74 -54 7 -22 -53 -15 -91 11 -19 13 -44 27 -56 31 -20 6 -28
34 -14 48 10 11 14 9 87 -36z m181 -17 c3 -5 1 -10 -4 -10 -6 0 -11 5 -11 10
0 6 2 10 4 10 3 0 8 -4 11 -10z m-127 -106 c21 -6 14 -44 -9 -44 -32 0 -59 19
-59 41 0 19 14 20 68 3z m8592 -25 c0 -5 -4 -9 -10 -9 -5 0 -10 7 -10 16 0 8
5 12 10 9 6 -3 10 -10 10 -16z m-8731 -382 c6 -8 35 -20 65 -27 32 -7 57 -19
60 -29 3 -9 9 -22 12 -28 4 -10 -2 -10 -26 -2 -17 6 -33 9 -36 6 -17 -17 -124
52 -124 80 0 17 34 17 49 0z m161 -192 c22 -26 -3 -40 -34 -20 -14 10 -26 21
-26 26 0 15 47 10 60 -6z m7665 -27 c45 -2 59 -7 57 -17 -2 -8 3 -11 11 -8 8
3 25 -4 38 -16 14 -13 34 -21 48 -19 16 3 22 -1 19 -9 -5 -16 -39 -27 -87 -28
-25 -1 -32 -5 -27 -16 6 -17 4 -18 -49 -5 -23 5 -44 5 -50 0 -11 -9 -65 -7
-95 3 -8 3 -27 8 -42 11 -16 4 -28 13 -28 21 0 8 -4 15 -10 15 -19 0 -25 3
-37 19 -17 23 -16 34 3 27 9 -4 25 0 34 9 19 17 129 35 145 24 6 -4 38 -9 70
-11z m-519 -24 c1 -13 -1 -24 -5 -24 -4 0 -13 -12 -19 -26 -7 -14 -16 -23 -21
-19 -5 3 -12 1 -16 -5 -3 -5 -11 -10 -17 -10 -6 0 -8 3 -5 7 8 7 -11 33 -25
33 -6 0 -8 -7 -4 -15 3 -8 1 -15 -4 -15 -10 0 -14 15 -10 35 1 6 -4 5 -10 -1
-10 -10 -41 -5 -78 12 -1 1 1 9 4 19 5 13 15 16 38 12 18 -3 39 1 50 8 10 8
24 11 31 9 7 -3 15 -1 18 3 3 5 21 7 39 5 27 -3 33 -8 34 -28z m-201 -54 c3
-6 -1 -7 -9 -4 -18 7 -21 14 -7 14 6 0 13 -4 16 -10z m-6905 -20 c0 -5 -4 -10
-10 -10 -5 0 -10 5 -10 10 0 6 5 10 10 10 6 0 10 -4 10 -10z m-132 -147 c7 -7
26 -13 41 -13 35 0 60 -24 35 -34 -24 -9 -81 3 -96 21 -7 8 -23 19 -36 24 -13
5 -21 13 -18 18 7 11 57 1 74 -16z m17 -143 c21 -16 34 -30 29 -31 -5 0 2 -5
16 -12 23 -11 22 -12 -24 -15 -81 -5 -96 2 -96 48 0 50 21 53 75 10z m-40
-127 c39 -19 44 -46 9 -51 -28 -4 -69 30 -61 51 8 21 8 21 52 0z m6545 -263
c0 -5 -4 -10 -10 -10 -5 0 -10 5 -10 10 0 6 5 10 10 10 6 0 10 -4 10 -10z m5
-169 c3 -5 1 -12 -5 -16 -5 -3 -10 1 -10 9 0 18 6 21 15 7z m15 -46 c0 -8 -4
-15 -10 -15 -5 0 -7 7 -4 15 4 8 8 15 10 15 2 0 4 -7 4 -15z m-6330 -85 c0
-29 -30 -38 -47 -14 -12 17 -12 20 9 26 36 10 38 9 38 -12z m6345 -90 c3 -6
-1 -7 -9 -4 -18 7 -21 14 -7 14 6 0 13 -4 16 -10z m-26 -42 c-6 -11 -8 -26 -5
-34 8 -21 -2 -17 -14 6 -14 26 -4 61 15 53 11 -4 12 -10 4 -25z m-6610 8 c46
-2 37 -55 -10 -56 -9 0 -21 11 -27 25 -15 33 -15 48 -1 39 7 -4 24 -7 38 -8z
m-39 -96 c0 -13 -7 -20 -20 -20 -22 0 -28 25 -7 33 22 10 27 7 27 -13z m6664
-35 c-7 -16 -24 -21 -24 -6 0 8 7 13 27 20 1 1 0 -6 -3 -14z m-6572 -28 c13
-20 9 -27 -15 -27 -26 0 -47 17 -47 38 0 17 50 8 62 -11z m-114 -175 c5 -17
-25 -15 -31 2 -4 9 0 13 11 12 9 -2 18 -8 20 -14z m50 -86 c31 -34 32 -35 11
-41 -29 -10 -92 50 -69 65 21 14 22 13 58 -24z m6737 -55 c3 -5 1 -12 -5 -16
-5 -3 -10 1 -10 9 0 18 6 21 15 7z m-6567 -99 c3 -9 -2 -13 -14 -10 -9 1 -19
9 -22 16 -3 9 2 13 14 10 9 -1 19 -9 22 -16z"/>
<path d="M8169 3368 c-8 -7 -21 -21 -28 -31 -12 -15 -12 -17 0 -12 13 5 55 55
46 55 -2 0 -10 -6 -18 -12z"/>
<path d="M8944 3029 c-7 -12 15 -31 28 -23 9 6 -1 34 -12 34 -5 0 -12 -5 -16
-11z"/>
<path d="M8975 2980 c-3 -5 -1 -10 4 -10 6 0 11 5 11 10 0 6 -2 10 -4 10 -3 0
-8 -4 -11 -10z"/>
<path d="M8970 2950 c0 -5 5 -10 10 -10 6 0 10 5 10 10 0 6 -4 10 -10 10 -5 0
-10 -4 -10 -10z"/>
<path d="M7605 1790 c3 -5 11 -10 16 -10 6 0 7 5 4 10 -3 6 -11 10 -16 10 -6
0 -7 -4 -4 -10z"/>
<path d="M2480 14271 c6 -12 15 -21 20 -21 18 0 11 19 -11 30 -19 11 -20 10
-9 -9z"/>
<path d="M2523 14244 c-7 -7 -13 -21 -13 -31 1 -13 5 -10 16 10 17 32 16 42
-3 21z"/>
<path d="M2535 14180 c3 -5 8 -10 11 -10 2 0 4 5 4 10 0 6 -5 10 -11 10 -5 0
-7 -4 -4 -10z"/>
<path d="M2845 14040 c-4 -17 -5 -34 -2 -36 3 -3 8 9 12 26 4 17 5 34 2 36 -3
3 -8 -9 -12 -26z"/>
<path d="M2888 14016 c-4 -18 -1 -26 8 -26 16 0 18 18 5 38 -6 10 -10 7 -13
-12z"/>
<path d="M2748 13993 c7 -3 16 -2 19 1 4 3 -2 6 -13 5 -11 0 -14 -3 -6 -6z"/>
<path d="M2866 13941 c-4 -7 -5 -15 -2 -18 9 -9 19 4 14 18 -4 11 -6 11 -12 0z"/>
<path d="M3521 13024 c0 -11 3 -14 6 -6 3 7 2 16 -1 19 -3 4 -6 -2 -5 -13z"/>
<path d="M5911 10764 c0 -11 3 -14 6 -6 3 7 2 16 -1 19 -3 4 -6 -2 -5 -13z"/>
<path d="M9028 9993 c7 -3 16 -2 19 1 4 3 -2 6 -13 5 -11 0 -14 -3 -6 -6z"/>
<path d="M9530 9850 c0 -5 5 -10 10 -10 6 0 10 5 10 10 0 6 -4 10 -10 10 -5 0
-10 -4 -10 -10z"/>
<path d="M10038 9753 c7 -3 16 -2 19 1 4 3 -2 6 -13 5 -11 0 -14 -3 -6 -6z"/>
<path d="M10080 9710 c0 -5 5 -10 10 -10 6 0 10 5 10 10 0 6 -4 10 -10 10 -5
0 -10 -4 -10 -10z"/>
<path d="M5665 9661 c-3 -5 -1 -12 5 -16 5 -3 10 1 10 9 0 18 -6 21 -15 7z"/>
<path d="M5520 8855 c-11 -13 -10 -14 4 -9 9 3 16 10 16 15 0 13 -6 11 -20 -6z"/>
<path d="M10620 6610 c-13 -8 -12 -10 3 -10 9 0 17 5 17 10 0 12 -1 12 -20 0z"/>
<path d="M10570 6510 c-9 -6 -10 -10 -3 -10 6 0 15 5 18 10 8 12 4 12 -15 0z"/>
<path d="M10560 6440 c0 -5 5 -10 10 -10 6 0 10 5 10 10 0 6 -4 10 -10 10 -5
0 -10 -4 -10 -10z"/>
<path d="M10406 6083 c5 -5 12 -12 15 -16 3 -5 9 -2 12 7 5 12 0 16 -15 16
-12 0 -17 -3 -12 -7z"/>
<path d="M8516 5992 c-3 -3 -23 -6 -44 -7 -22 -1 -53 -8 -70 -16 -26 -11 -30
-18 -25 -39 6 -24 41 -70 104 -136 37 -38 130 -59 259 -57 82 1 87 2 123 34
20 18 37 39 37 46 0 7 4 13 9 13 14 0 1 81 -17 106 -9 12 -37 32 -61 44 -39
19 -59 21 -177 19 -73 -1 -136 -4 -138 -7z"/>
<path d="M10410 5960 c19 -13 30 -13 30 0 0 6 -10 10 -22 10 -19 0 -20 -2 -8
-10z"/>
<path d="M10390 5933 c0 -2 6 -10 13 -17 10 -10 15 -10 24 -1 9 10 6 14 -13
18 -13 2 -24 2 -24 0z"/>
<path d="M8855 5220 c3 -5 10 -10 16 -10 5 0 9 5 9 10 0 6 -7 10 -16 10 -8 0
-12 -4 -9 -10z"/>
<path d="M933 4483 c9 -2 25 -2 35 0 9 3 1 5 -18 5 -19 0 -27 -2 -17 -5z"/>
<path d="M1105 4445 c-27 -13 -90 -30 -140 -38 -49 -9 -91 -20 -93 -26 -12
-37 -42 -56 -84 -55 -23 1 -50 3 -58 5 -10 3 -15 -3 -15 -16 0 -14 9 -21 32
-26 18 -3 45 -15 60 -25 23 -16 47 -19 143 -19 136 0 191 14 237 60 28 28 33
40 33 82 0 36 -5 55 -18 66 -24 22 -36 21 -97 -8z"/>
<path d="M0 3900 c0 -21 12 -24 45 -10 18 7 18 8 3 14 -45 15 -48 15 -48 -4z"/>
<path d="M10 3741 c0 -12 5 -21 10 -21 6 0 10 6 10 14 0 8 -4 18 -10 21 -5 3
-10 -3 -10 -14z"/>
<path d="M40 3741 c0 -12 5 -21 10 -21 6 0 10 6 10 14 0 8 -4 18 -10 21 -5 3
-10 -3 -10 -14z"/>
<path d="M915 3720 c3 -5 8 -10 11 -10 2 0 4 5 4 10 0 6 -5 10 -11 10 -5 0 -7
-4 -4 -10z"/>
<path d="M3830 3720 c0 -5 5 -10 10 -10 6 0 10 5 10 10 0 6 -4 10 -10 10 -5 0
-10 -4 -10 -10z"/>
<path d="M4895 3710 c-3 -5 1 -10 9 -10 9 0 16 5 16 10 0 6 -4 10 -9 10 -6 0
-13 -4 -16 -10z"/>
<path d="M5175 3710 c-3 -5 -2 -10 4 -10 5 0 13 5 16 10 3 6 2 10 -4 10 -5 0
-13 -4 -16 -10z"/>
<path d="M372 3694 c1 -9 9 -19 16 -22 9 -3 13 2 10 14 -1 9 -9 19 -16 22 -9
3 -13 -2 -10 -14z"/>
<path d="M985 3700 c4 -6 11 -8 16 -5 14 9 11 15 -7 15 -8 0 -12 -5 -9 -10z"/>
<path d="M47 3673 c-4 -19 0 -34 13 -47 37 -38 56 13 20 52 -26 28 -27 28 -33
-5z"/>
<path d="M4955 3680 c-3 -5 -1 -10 4 -10 6 0 11 5 11 10 0 6 -2 10 -4 10 -3 0
-8 -4 -11 -10z"/>
<path d="M5160 3655 c-21 -25 -1 -31 23 -7 17 18 18 22 5 22 -8 0 -21 -7 -28
-15z"/>
<path d="M143 3622 c-29 -4 -29 -5 4 -39 14 -15 23 -22 19 -16 -4 7 -2 21 4
32 12 23 5 29 -27 23z"/>
<path d="M70 3560 c0 -5 7 -10 15 -10 8 0 15 5 15 10 0 6 -7 10 -15 10 -8 0
-15 -4 -15 -10z"/>
<path d="M135 3530 c-3 -5 -1 -10 4 -10 6 0 11 5 11 10 0 6 -2 10 -4 10 -3 0
-8 -4 -11 -10z"/>
<path d="M180 3500 c0 -5 5 -10 10 -10 6 0 10 5 10 10 0 6 -4 10 -10 10 -5 0
-10 -4 -10 -10z"/>
<path d="M6410 3485 c0 -9 -6 -12 -15 -9 -9 4 -15 1 -15 -7 0 -7 -12 -26 -27
-42 -24 -25 -25 -27 -5 -16 12 8 22 17 22 21 0 5 6 8 13 8 16 0 47 32 47 48 0
7 -4 12 -10 12 -5 0 -10 -7 -10 -15z"/>
<path d="M6260 3480 c-9 -6 -10 -10 -3 -10 6 0 15 5 18 10 8 12 4 12 -15 0z"/>
<path d="M5203 3463 c4 -3 2 -12 -4 -20 -14 -16 3 -17 19 -1 17 17 15 28 -5
28 -9 0 -13 -3 -10 -7z"/>
<path d="M5655 3430 c-3 -5 -2 -10 4 -10 5 0 13 5 16 10 3 6 2 10 -4 10 -5 0
-13 -4 -16 -10z"/>
<path d="M510 3420 c0 -11 39 -20 45 -10 3 4 -6 10 -20 12 -14 3 -25 2 -25 -2z"/>
<path d="M38 3411 c-17 -6 -16 -7 2 -18 13 -9 21 -9 26 -2 9 15 -8 28 -28 20z"/>
<path d="M6911 3404 c0 -11 3 -14 6 -6 3 7 2 16 -1 19 -3 4 -6 -2 -5 -13z"/>
<path d="M5280 3380 c-9 -6 -10 -10 -3 -10 6 0 15 5 18 10 8 12 4 12 -15 0z"/>
<path d="M40 3276 c0 -7 88 -56 99 -56 25 0 9 31 -19 37 -17 3 -33 10 -36 14
-5 9 -44 13 -44 5z"/>
<path d="M200 3256 c0 -2 7 -6 15 -10 8 -3 15 -1 15 4 0 6 -7 10 -15 10 -8 0
-15 -2 -15 -4z"/>
<path d="M94 3005 c21 -16 32 -13 21 4 -3 6 -14 11 -23 11 -15 -1 -15 -2 2
-15z"/>
<path d="M280 2985 c-10 -12 -7 -21 16 -49 25 -30 34 -34 59 -29 40 7 42 10
18 36 -11 12 -23 30 -26 40 -8 21 -50 23 -67 2z"/>
<path d="M160 2956 c0 -8 7 -16 15 -20 9 -3 15 0 15 8 0 8 -7 16 -15 20 -9 3
-15 0 -15 -8z"/>
<path d="M190 2887 c0 -19 53 -47 78 -40 13 3 22 13 22 25 0 14 -5 18 -15 15
-8 -4 -17 -2 -20 3 -9 15 -65 12 -65 -3z"/>
<path d="M0 2684 c0 -6 18 -25 39 -42 29 -23 40 -28 44 -18 6 16 -23 46 -44
46 -8 0 -20 5 -27 12 -7 7 -12 8 -12 2z"/>
<path d="M30 2526 c0 -8 9 -18 20 -21 11 -3 20 -13 20 -20 0 -8 9 -19 19 -25
54 -28 55 7 2 49 -42 34 -61 39 -61 17z"/>
<path d="M50 2362 c0 -10 16 -33 35 -52 32 -31 35 -32 35 -13 0 12 -5 25 -11
28 -5 4 -14 18 -19 31 -11 28 -40 32 -40 6z"/>
<path d="M18 2100 c17 -29 42 -41 42 -19 0 22 -22 49 -40 49 -18 0 -18 -1 -2
-30z"/>
<path d="M21 1980 c-17 -10 44 -80 70 -80 25 0 24 5 -7 45 -28 37 -45 47 -63
35z"/>
<path d="M175 1929 c-16 -6 -14 -8 13 -8 33 -1 41 4 20 12 -7 2 -22 1 -33 -4z"/>
<path d="M35 1840 c3 -5 8 -10 11 -10 2 0 4 5 4 10 0 6 -5 10 -11 10 -5 0 -7
-4 -4 -10z"/>
<path d="M240 1714 c0 -17 22 -14 28 4 2 7 -3 12 -12 12 -9 0 -16 -7 -16 -16z"/>
<path d="M0 1700 c0 -6 11 -16 25 -22 16 -7 25 -19 25 -34 0 -29 38 -53 51
-33 5 8 7 20 4 27 -3 8 -5 20 -5 27 0 15 -54 45 -82 45 -10 0 -18 -5 -18 -10z"/>
<path d="M7097 1663 c-12 -11 -8 -23 8 -23 8 0 15 7 15 15 0 16 -12 20 -23 8z"/>
<path d="M57 1534 c-6 -7 82 -94 95 -94 16 0 7 30 -12 40 -11 6 -20 20 -20 30
0 11 -6 20 -14 20 -8 0 -21 2 -28 5 -8 3 -17 3 -21 -1z"/>
<path d="M36 1402 c-3 -6 1 -13 10 -16 8 -3 13 -10 9 -15 -6 -11 33 -36 42
-28 3 3 -1 18 -9 34 -13 28 -41 42 -52 25z"/>
<path d="M6920 1170 c0 -5 5 -10 11 -10 5 0 7 5 4 10 -3 6 -8 10 -11 10 -2 0
-4 -4 -4 -10z"/>
<path d="M6859 1003 c4 -52 7 -49 13 10 2 22 0 37 -7 37 -6 0 -9 -18 -6 -47z"/>
<path d="M56 1002 c-3 -5 7 -27 20 -51 20 -32 31 -41 47 -39 14 2 21 9 19 20
-1 9 6 19 18 23 47 15 6 54 -57 55 -23 0 -44 -4 -47 -8z"/>
<path d="M6823 873 c9 -9 20 -13 24 -9 4 4 1 11 -7 16 -25 16 -35 11 -17 -7z"/>
<path d="M100 870 c0 -20 69 -94 105 -111 33 -16 34 -16 32 5 -4 36 -36 73
-80 92 -23 10 -45 20 -49 22 -5 2 -8 -2 -8 -8z"/>
<path d="M0 735 c0 -21 5 -25 28 -25 15 0 38 3 51 7 22 6 22 7 -15 24 -50 25
-64 24 -64 -6z"/>
<path d="M0 597 c0 -26 6 -36 25 -45 35 -16 35 -16 35 18 0 23 -7 33 -30 45
l-30 16 0 -34z"/>
<path d="M0 440 c0 -19 3 -21 12 -12 9 9 9 15 0 24 -9 9 -12 7 -12 -12z"/>
<path d="M0 296 c0 -16 7 -26 22 -29 43 -12 54 23 13 41 -34 16 -35 16 -35
-12z"/>
<path d="M16 54 c-9 -8 -16 -24 -16 -35 0 -31 53 -26 75 7 14 22 15 28 4 35
-21 13 -46 11 -63 -7z"/>
</g>
</svg>
